Coordinates
version=1
nRows=4
nColumns=107
inDegrees=yes

Units are S.I. units (second, meters, Newtons, ...)
If the header above contains a line with 'inDegrees', this indicates whether rotational values are in degrees (yes) or radians (no).

endheader
time	sternoclavicular_r2	sternoclavicular_r3	unrotscap_r3	unrotscap_r2	acromioclavicular_r2	acromioclavicular_r3	acromioclavicular_r1	unrothum_r1	unrothum_r3	unrothum_r2	elv_angle	shoulder_elv	shoulder1_r2	shoulder_rot	elbow_flexion	pro_sup	deviation	flexion	proximal_distal_r1	proximal_distal_r3	cmc_flexion	cmc_abduction	mp_flexion	ip_flexion	mcp2_flexion	mcp2_abduction	pm2_flexion	md2_flexion	mcp3_flexion	mcp3_abduction	pm3_flexion	md3_flexion	mcp4_flexion	mcp4_abduction	pm4_flexion	md4_flexion	mcp5_flexion	mcp5_abduction	pm5_flexion	md5_flexion	bicpt_tx	bicpt_ty	bicpt_tz	bicpt2_tx	bicpt2_ty	bicpt2_tz	ptpt_tx	ptpt_ty	ptpt_tz	FCUpt_tx	FCUpt_ty	FCUpt_tz	EDCpt_tx	EDCpt_ty	EDCpt_tz	APLpt_tx	APLpt_ty	APLpt_tz	FPLpt_tx	FPLpt_ty	FPLpt_tz	FPLpt2_tx	FPLpt2_ty	FPLpt2_tz	PEC1pt2_tx	PEC1pt2_ty	PEC1pt2_tz	PEC1pt3_tx	PEC1pt3_ty	PEC1pt3_tz	PEC2pt2_tx	PEC2pt2_ty	PEC2pt2_tz	PEC2pt3_tx	PEC2pt3_ty	PEC2pt3_tz	PEC3pt2_tx	PEC3pt2_ty	PEC3pt2_tz	PEC3pt3_tx	PEC3pt3_ty	PEC3pt3_tz	DELT2pt2a_tx	DELT2pt2a_ty	DELT2pt2a_tz	DELT2pt2_tx	DELT2pt2_ty	DELT2pt2_tz	LAT1pt2_tx	LAT1pt2_ty	LAT1pt2_tz	LAT1pt3_tx	LAT1pt3_ty	LAT1pt3_tz	LAT2pt2_tx	LAT2pt2_ty	LAT2pt2_tz	LAT2pt3_tx	LAT2pt3_ty	LAT2pt3_tz	LAT3pt2_tx	LAT3pt2_ty	LAT3pt2_tz	LAT3pt3_tx	LAT3pt3_ty	LAT3pt3_tz
      1.16666667	     -0.32269727	      0.13667933	     -0.13667933	      0.32269727	     -0.06533963	      0.52805193	      0.23735571	     -0.23735571	     -0.52805193	      0.06533963	     97.87391218	     76.40144643	     -1.70822202	    -21.74495177	     30.89863725	     34.25831546	      0.24320517	     -0.52220460	      0.28165001	     -0.26110230	     11.52004155	     12.36563579	    -40.14198917	    -61.43733776	      8.74584862	     12.97492662	     16.66056089	    -10.75945969	     80.37755785	      7.40049567	     82.11778167	     39.31835015	     72.03511999	     -8.82120698	     82.85310038	     21.91659250	     27.19512522	    -14.05943614	    -16.86861036	      4.80506270	      0.00092203	     -0.03114146	     -0.00487044	      0.01652597	     -0.01859377	     -0.00805985	      0.00501870	     -0.06653678	     -0.00280969	      0.00720726	     -0.18360982	     -0.00033325	     -0.00411099	      0.00115177	      0.00017871	      0.00030592	      0.00012237	      0.00061185	      0.00039158	      0.00117475	      0.00066079	      0.00003051	     -0.00021428	     -0.00025713	      0.00250427	      0.00878617	      0.00611212	     -0.00819194	      0.01977950	     -0.01876082	      0.00250427	      0.00878617	      0.00611212	      0.00055179	      0.01833636	     -0.00963508	      0.00395681	      0.00488588	      0.01598927	      0.00000000	      0.00780677	      0.00000000	     -0.00717325	     -0.03314977	     -0.00643719	      0.01476282	     -0.00048613	     -0.00392766	     -0.00089135	      0.01494074	     -0.00611212	      0.00246183	      0.02156220	     -0.01782702	     -0.00598479	      0.01294581	     -0.00547544	     -0.01247891	      0.02733476	     -0.03060305	     -0.02342980	      0.01447384	     -0.00734303	     -0.01553497	      0.03157929	     -0.03824320
      1.20000000	     -0.32051029	      0.13575303	     -0.13575303	      0.32051029	     -0.06489681	      0.52447323	      0.23574711	     -0.23574711	     -0.52447323	      0.06489681	     98.31045323	     75.88366101	     -1.71584110	    -23.97364831	     31.00848849	     35.81988185	      0.24040415	     -0.52652631	      0.27895775	     -0.26326316	     12.43130087	     12.78934077	    -39.66840016	    -59.50109213	     11.20496635	     12.93269054	     17.70627790	    -10.24429910	     78.30741522	      7.27891280	     81.92485222	     39.57969999	     70.22396718	     -8.66061716	     82.60257386	     21.96050237	     26.32029552	    -14.06206220	    -16.54068527	      4.81352595	      0.00092566	     -0.03115405	     -0.00487246	      0.01654661	     -0.01862361	     -0.00790401	      0.00490331	     -0.06661139	     -0.00293548	      0.00736208	     -0.18357954	     -0.00035017	     -0.00429838	      0.00121290	      0.00017169	      0.00030654	      0.00012262	      0.00061309	      0.00039238	      0.00117713	      0.00066214	      0.00002895	     -0.00022493	     -0.00026992	      0.00248730	      0.00872663	      0.00607070	     -0.00813642	      0.01964545	     -0.01863367	      0.00248730	      0.00872663	      0.00607070	      0.00054805	      0.01821209	     -0.00956978	      0.00393720	      0.00485277	      0.01594133	      0.00000000	      0.00770058	      0.00000000	     -0.00712464	     -0.03292511	     -0.00634903	      0.01596366	     -0.00055700	     -0.00479852	     -0.00088531	      0.01483948	     -0.00607070	      0.00244514	      0.02141607	     -0.01770620	     -0.00594423	      0.01285808	     -0.00543833	     -0.01239434	      0.02714951	     -0.03039565	     -0.02327101	      0.01437575	     -0.00729327	     -0.01542969	      0.03136527	     -0.03798402
      1.23333333	     -0.32043010	      0.13571907	     -0.13571907	      0.32043010	     -0.06488058	      0.52434200	      0.23568812	     -0.23568812	     -0.52434200	      0.06488058	     98.36319800	     75.86467388	     -1.71676167	    -23.93657169	     30.88989316	     35.67327864	      0.25081501	     -0.53132923	      0.28890056	     -0.26566461	     14.15585541	     12.65941938	    -38.97602006	    -59.06301993	     13.81277385	     12.84978076	     19.00679201	     -9.75664414	     75.60502775	      7.34516624	     81.14413474	     39.46019958	     68.06191838	     -8.37309126	     81.62514072	     21.70541286	     25.91612788	    -14.06902724	    -16.71896203	      4.81971350	      0.00092174	     -0.03114045	     -0.00487027	      0.01654492	     -0.01859139	     -0.00791880	      0.00491415	     -0.06660439	     -0.00292367	      0.00734752	     -0.18358241	     -0.00034866	     -0.00428078	      0.00120712	      0.00017241	      0.00030720	      0.00012288	      0.00061440	      0.00039322	      0.00117966	      0.00066356	      0.00002559	     -0.00024258	     -0.00029110	      0.00248668	      0.00872444	      0.00606918	     -0.00813439	      0.01964054	     -0.01862901	      0.00248668	      0.00872444	      0.00606918	      0.00054791	      0.01820754	     -0.00956739	      0.00393648	      0.00485155	      0.01593956	      0.00000000	      0.00769670	      0.00000000	     -0.00712286	     -0.03291687	     -0.00634581	      0.01594425	     -0.00055581	     -0.00478341	     -0.00088509	      0.01483577	     -0.00606918	      0.00244453	      0.02141071	     -0.01770177	     -0.00594274	      0.01285486	     -0.00543697	     -0.01239124	      0.02714272	     -0.03038804	     -0.02326519	      0.01437215	     -0.00729144	     -0.01542583	      0.03135743	     -0.03797452
      1.26666667	     -0.32245423	      0.13657639	     -0.13657639	      0.32245423	     -0.06529042	      0.52765422	      0.23717694	     -0.23717694	     -0.52765422	      0.06529042	     97.79883649	     76.34390480	     -1.70691170	    -21.39351836	     31.04859934	     32.73747672	      0.28043687	     -0.49316642	      0.31622096	     -0.24658321	     15.14800977	     12.64537476	    -38.18657294	    -53.93884539	     15.03244900	     12.69552176	     22.67478603	    -10.33588211	     70.67084322	      6.91652924	     79.60430552	     41.79157357	     64.21275746	     -8.04018126	     78.12570122	     25.56778344	     23.86203930	    -14.09446005	    -16.27750054	      4.88478993	      0.00092699	     -0.03115864	     -0.00487320	      0.01650051	     -0.01863450	     -0.00820834	      0.00513107	     -0.06646412	     -0.00268718	      0.00705720	     -0.18363865	     -0.00031500	     -0.00392849	      0.00109295	      0.00018426	      0.00030090	      0.00012036	      0.00060180	      0.00038515	      0.00115546	      0.00064995	      0.00002345	     -0.00025126	     -0.00030151	      0.00250239	      0.00877956	      0.00610752	     -0.00818577	      0.01976461	     -0.01874669	      0.00250239	      0.00877956	      0.00610752	      0.00055137	      0.01832255	     -0.00962782	      0.00395463	      0.00488220	      0.01598398	      0.00000000	      0.00779493	      0.00000000	     -0.00716785	     -0.03312480	     -0.00642736	      0.01456741	     -0.00047512	     -0.00379710	     -0.00089068	      0.01492949	     -0.00610752	      0.00245997	      0.02154596	     -0.01781359	     -0.00598028	      0.01293606	     -0.00547132	     -0.01246951	      0.02731418	     -0.03058000	     -0.02341215	      0.01446294	     -0.00733750	     -0.01552327	      0.03155551	     -0.03821440
